<?xml version="1.0" encoding="utf-8"?>
<!-- Generator: Adobe Illustrator 23.1.0, SVG Export Plug-In . SVG Version: 6.00 Build 0)  -->
<svg version="1.1" id="Layer_1" xmlns="http://www.w3.org/2000/svg" xmlns:xlink="http://www.w3.org/1999/xlink" x="0px" y="0px"
	 viewBox="0 0 141.7 141.7" style="enable-background:new 0 0 141.7 141.7;" xml:space="preserve">
<style type="text/css">
	.st0{fill:#E32F25;}
	.st1{opacity:0.66;fill:url(#SVGID_1_);enable-background:new    ;}
</style>
<g>
	<path class="st0" d="M70.7,19.8c19.9,0,38.1,11,47.3,28.7c2.8,5.4,4.6,11,5.4,17c2,16.4-2.5,30.8-13.4,43.2c-3.9,4.5-8.6,8-14,10.6
		c-2.1,1-4.2,1.8-6.4,2.4c-1.2,0.3-1.9-0.1-2.4-1.2c-2.4-6.2-4.8-12.4-7.3-18.7c-1.5-3.8-2.9-7.5-4.4-11.3c-0.5-1.4-0.1-2.2,1.3-2.7
		c2.2-0.8,4.1-2,5.7-3.6c2-2,3.1-4.5,3.6-7.3c0.4-2.3,0.6-4.6,0.1-7c-0.8-4-2.8-7.2-6.1-9.6c-3.2-2.4-6.8-3.3-10.7-3
		c-6.7,0.6-12.4,5.5-13.8,12.1c-0.5,2.5-0.3,5,0.1,7.5c0.5,2.4,1.4,4.6,2.8,6.6c1.7,2.3,4,3.8,6.7,4.7c0.7,0.2,1.2,0.6,1.3,1.4
		c0.1,0.4,0,0.8-0.2,1.2c-1.9,4.6-3.7,9.2-5.6,13.8c-2.2,5.3-4.3,10.6-6.5,15.9c-0.4,1.1-1.2,1.5-2.4,1.2c-4.9-1.3-9.2-3.6-13.2-6.6
		c-10.3-7.9-16.7-18.3-19.7-30.8c-1.1-4.7-1.5-9.5-1.2-14.3c0.9-14.7,6.8-27,17.7-36.8c6.9-6.2,14.9-10.2,23.9-12.1
		C63.2,20.2,67,19.8,70.7,19.8z"/>
	<linearGradient id="SVGID_1_" gradientUnits="userSpaceOnUse" x1="26.4022" y1="52.2691" x2="122.7359" y2="96.5828">
		<stop  offset="0" style="stop-color:#E02E27;stop-opacity:0"/>
		<stop  offset="0.7795" style="stop-color:#C62E28"/>
	</linearGradient>
	<path class="st1" d="M70.7,19.8c19.9,0,38.1,11,47.3,28.7c2.8,5.4,4.6,11,5.4,17c2,16.4-2.5,30.8-13.4,43.2c-3.9,4.5-8.6,8-14,10.6
		c-2.1,1-4.2,1.8-6.4,2.4c-1.2,0.3-1.9-0.1-2.4-1.2c-2.4-6.2-4.8-12.4-7.3-18.7c-1.5-3.8-2.9-7.5-4.4-11.3c-0.5-1.4-0.1-2.2,1.3-2.7
		c2.2-0.8,4.1-2,5.7-3.6c2-2,3.1-4.5,3.6-7.3c0.4-2.3,0.6-4.6,0.1-7c-0.8-4-2.8-7.2-6.1-9.6c-3.2-2.4-6.8-3.3-10.7-3
		c-6.7,0.6-12.4,5.5-13.8,12.1c-0.5,2.5-0.3,5,0.1,7.5c0.5,2.4,1.4,4.6,2.8,6.6c1.7,2.3,4,3.8,6.7,4.7c0.7,0.2,1.2,0.6,1.3,1.4
		c0.1,0.4,0,0.8-0.2,1.2c-1.9,4.6-3.7,9.2-5.6,13.8c-2.2,5.3-4.3,10.6-6.5,15.9c-0.4,1.1-1.2,1.5-2.4,1.2c-4.9-1.3-9.2-3.6-13.2-6.6
		c-10.3-7.9-16.7-18.3-19.7-30.8c-1.1-4.7-1.5-9.5-1.2-14.3c0.9-14.7,6.8-27,17.7-36.8c6.9-6.2,14.9-10.2,23.9-12.1
		C63.2,20.2,67,19.8,70.7,19.8z"/>
</g>
</svg>
