<?xml version="1.0" encoding="utf-8"?>
<!-- Generator: Adobe Illustrator 23.1.0, SVG Export Plug-In . SVG Version: 6.00 Build 0)  -->
<svg version="1.1" id="Layer_1" xmlns="http://www.w3.org/2000/svg" xmlns:xlink="http://www.w3.org/1999/xlink" x="0px" y="0px"
	 viewBox="0 0 141.7 141.7" style="enable-background:new 0 0 141.7 141.7;" xml:space="preserve">
<style type="text/css">
	.st0{fill:#E32F25;}
	.st1{fill:url(#SVGID_1_);}
	.st2{fill:url(#SVGID_2_);}
</style>
<g>
	<path class="st0" d="M49.5,88.9c-10-10-9.9-26.2,0.4-36.3c5-4.9,11.1-7.3,18.1-6.9c10,0.5,16.8,6.1,21.9,14.2
		c6.8-4,13.5-7.9,20.1-11.8c-9.7-17.6-31.4-29.7-53.8-24.5c-21,4.8-36.5,23-37.8,44.4c-1.4,23.4,14,42.7,33.8,49.1
		c21.1,6.8,43.2-2.1,54.3-18.7c-6.6-3.9-13-7.8-19.4-11.6C76.6,99.3,59.3,98.7,49.5,88.9z"/>
	<path class="st0" d="M119.3,71c1.4,0,2.7,0,4,0c0-1.8,0-3.5,0-5.3c-1.4,0-2.7,0-4.2,0c0-1.5,0-2.8,0-4.1c-1.8,0-3.4,0-5.2,0
		c0,1.4,0,2.7,0,4.1c-2.3,0-4.2,0-6.4,0c0-1.4,0-2.7,0-4.1c-1.8,0-3.5,0-5.3,0c0,1.4,0,2.8,0,4.3c-1.5,0-2.8,0-4.1,0
		c0,1.8,0,3.5,0,5.3c1.4,0,2.7,0,4,0c0,2.2,0,4.2,0,6.4c-1.4,0-2.7,0-4.1,0c0,1.8,0,3.4,0,5.2c1.4,0,2.7,0,4.2,0c0,1.5,0,2.8,0,4.1
		c1.8,0,3.5,0,5.3,0c0-1.4,0-2.7,0-4c2.2,0,4.2,0,6.4,0c0,1.4,0,2.7,0,4c1.8,0,3.4,0,5.2,0c0-1.4,0-2.7,0-4.2c1.5,0,2.8,0,4.1,0
		c0-1.8,0-3.4,0-5.2c-1.4,0-2.7,0-4.1,0C119.3,75.2,119.3,73.2,119.3,71z M113.8,77.4c-2,0-4,0-6.1,0c0-2,0-4.1,0-6.3
		c2.1,0,4.1,0,6.1,0C113.8,73.2,113.8,75.2,113.8,77.4z"/>
	
		<linearGradient id="SVGID_1_" gradientUnits="userSpaceOnUse" x1="42.02" y1="95.7155" x2="107.7241" y2="31.7546" gradientTransform="matrix(1 0 0 -1 0 142.3614)">
		<stop  offset="0" style="stop-color:#E02E27;stop-opacity:0"/>
		<stop  offset="0.7795" style="stop-color:#C62E28"/>
	</linearGradient>
	<path class="st1" d="M49.5,88.9c-10-10-9.9-26.2,0.4-36.3c5-4.9,11.1-7.3,18.1-6.9c10,0.5,16.8,6.1,21.9,14.2
		c6.8-4,13.5-7.9,20.1-11.8c-9.7-17.6-31.4-29.7-53.8-24.5c-21,4.8-36.5,23-37.8,44.4c-1.4,23.4,14,42.7,33.8,49.1
		c21.1,6.8,43.2-2.1,54.3-18.7c-6.6-3.9-13-7.8-19.4-11.6C76.6,99.3,59.3,98.7,49.5,88.9z"/>
	
		<linearGradient id="SVGID_2_" gradientUnits="userSpaceOnUse" x1="98.1439" y1="68.0953" x2="123.3234" y2="68.0953" gradientTransform="matrix(1 0 0 -1 0 142.3614)">
		<stop  offset="0" style="stop-color:#E02E27;stop-opacity:0"/>
		<stop  offset="0.7795" style="stop-color:#C62E28"/>
	</linearGradient>
	<path class="st2" d="M119.3,71c1.4,0,2.7,0,4,0c0-1.8,0-3.5,0-5.3c-1.4,0-2.7,0-4.2,0c0-1.5,0-2.8,0-4.1c-1.8,0-3.4,0-5.2,0
		c0,1.4,0,2.7,0,4.1c-2.3,0-4.2,0-6.4,0c0-1.4,0-2.7,0-4.1c-1.8,0-3.5,0-5.3,0c0,1.4,0,2.8,0,4.3c-1.5,0-2.8,0-4.1,0
		c0,1.8,0,3.5,0,5.3c1.4,0,2.7,0,4,0c0,2.2,0,4.2,0,6.4c-1.4,0-2.7,0-4.1,0c0,1.8,0,3.4,0,5.2c1.4,0,2.7,0,4.2,0c0,1.5,0,2.8,0,4.1
		c1.8,0,3.5,0,5.3,0c0-1.4,0-2.7,0-4c2.2,0,4.2,0,6.4,0c0,1.4,0,2.7,0,4c1.8,0,3.4,0,5.2,0c0-1.4,0-2.7,0-4.2c1.5,0,2.8,0,4.1,0
		c0-1.8,0-3.4,0-5.2c-1.4,0-2.7,0-4.1,0C119.3,75.2,119.3,73.2,119.3,71z M113.8,77.4c-2,0-4,0-6.1,0c0-2,0-4.1,0-6.3
		c2.1,0,4.1,0,6.1,0C113.8,73.2,113.8,75.2,113.8,77.4z"/>
</g>
</svg>
