<?xml version="1.0" encoding="utf-8"?>
<!-- Generator: Adobe Illustrator 23.1.0, SVG Export Plug-In . SVG Version: 6.00 Build 0)  -->
<svg version="1.1" id="Layer_1" xmlns="http://www.w3.org/2000/svg" xmlns:xlink="http://www.w3.org/1999/xlink" x="0px" y="0px"
	 viewBox="0 0 141.7 141.7" style="enable-background:new 0 0 141.7 141.7;" xml:space="preserve">
<style type="text/css">
	.st0{fill:#E32F25;}
	.st1{fill:url(#SVGID_1_);}
	.st2{fill:url(#SVGID_2_);}
	.st3{fill:url(#SVGID_3_);}
	.st4{fill:url(#SVGID_4_);}
	.st5{opacity:0.66;fill:url(#SVGID_5_);enable-background:new    ;}
	.st6{opacity:0.66;fill:url(#SVGID_6_);enable-background:new    ;}
	.st7{opacity:0.66;fill:url(#SVGID_7_);enable-background:new    ;}
</style>
<g>
	<g>
		<path class="st0" d="M32.5,100.3c-17.2,0-31.2-3.8-31.2-8.7v7.9c0,6.1,14,11.1,31.2,11.1s31.2-5,31.2-11.1v-7.9
			C63.7,96.4,49.7,100.3,32.5,100.3z"/>
		<path class="st0" d="M32.5,83.2c-17.2,0-31.2-3.8-31.2-8.7v8.1c0,6.1,14,10.9,31.2,10.9s31.2-5,31.2-11.1v-7.9
			C63.7,79.4,49.7,83.2,32.5,83.2z"/>
		<path class="st0" d="M32.5,33.6c-17.2,0-31.2,5-31.2,11.1v3.8c0,6.1,14,11.1,31.2,11.1s31.2-5,31.2-11.1v-3.8
			C63.7,38.7,49.7,33.6,32.5,33.6z"/>
		<path class="st0" d="M32.5,66.3c-17.2,0-31.2-3.8-31.2-8.7v7.9c0,6.1,14,11.1,31.2,11.1s31.2-5,31.2-11.1v-7.9
			C63.7,62.4,49.7,66.3,32.5,66.3z"/>
	</g>
	<path class="st0" d="M99.9,65.7c-2.7,0-5.3,0-8,0c0-0.9,0-1.7,0-2.5c0-1.2-0.6-1.8-1.7-1.8c-1.1,0-1.8,0.7-1.8,1.9
		c0,1.5,0.9,2.7,1.9,3.6c1.6,1.6,3.3,3.2,5,4.9c1.8,1.8,3.5,3.6,4.1,6.2c0.3,1.1,0.5,2.2,0.6,3.2c0.2,2.7-0.1,5.3-1,7.8
		c-1.1,3.2-3.5,4.7-6.7,5c-1.5,0.2-3.1,0.1-4.5-0.2c-3.6-0.6-5.7-2.8-6.3-6.3c-0.2-1.4-0.4-2.8-0.5-4.1c-0.1-1.4,0-2.8,0-4.3
		c2.6,0,5.1,0,7.7,0c0,0.2,0,0.4,0,0.6c0,1.5,0,2.9,0,4.4c0,0.5,0.1,1.1,0.2,1.5c0.2,1,0.9,1.4,1.8,1.3c0.9-0.1,1.4-0.5,1.5-1.5
		c0.3-2.6,0-5-1.9-7c-2.1-2.1-4.2-4.2-6.2-6.4c-2.7-2.8-3.6-6.3-2.8-10.1c0.2-1.1,0.5-2.1,0.9-3.2c1.1-2.4,2.9-3.8,5.4-4.3
		c2.2-0.5,4.5-0.3,6.6,0.3c2.3,0.6,3.9,2.2,4.8,4.4C99.7,61.1,99.8,63.3,99.9,65.7z"/>
	<path class="st0" d="M133,86.9c2.7,0,5.3,0,7.9,0c0,2.2,0,4.4,0,6.6c-5.3,0-10.5,0-15.7,0c0-13,0-26,0-39.1c0.2,0,0.4,0,0.6,0
		c2.2,0,4.4,0,6.6,0c0.6,0,0.6,0.2,0.6,0.6c0,10.3,0,20.6,0,30.9C133,86.2,133,86.6,133,86.9z"/>
	<path class="st0" d="M120,97.7c0.9-1.5,1.8-3.2,2.6-4.6c-1.1-0.7-2.2-1.5-3.3-2.1c1.7-2.5,2.1-4.9,2.1-7.5c0-6.4,0-12.8,0-19.3
		c0-1-0.1-1.9-0.2-2.8c-0.6-3.6-2.6-6.1-6.2-7c-2.3-0.6-4.5-0.6-6.8,0.1c-2.7,0.8-4.5,2.6-5.3,5.3c-0.5,1.6-0.6,3.2-0.6,4.9
		c0,5.7,0,11.3,0,17.1c0,1.1,0,2.2,0.1,3.3c0.2,1.8,0.6,3.6,1.6,5.1c1.9,3.1,5.9,4.1,8.9,3.6c0.6-0.2,1.2-0.1,1.8,0.3
		c1.1,0.8,2.3,1.5,3.5,2.3C118.5,96.8,120,97.7,120,97.7z M110,64c0-0.6,0.2-1.2,0.4-1.7c0.2-0.6,0.8-1,1.5-1c0.7,0,1.2,0.4,1.4,1.1
		c0.2,0.7,0.3,1.5,0.3,2.3c0,3.1,0,16-0.1,19.5c0,0.5-0.1,1.1-0.2,1.5c-0.2,0.7-0.6,1.1-1.4,1.1c-0.8,0-1.4-0.2-1.6-1
		c-0.2-0.6-0.4-1.4-0.4-2C109.9,77.2,109.9,70.6,110,64z"/>
	<g>
		
			<linearGradient id="SVGID_1_" gradientUnits="userSpaceOnUse" x1="1.2686" y1="41.2398" x2="63.6791" y2="41.2398" gradientTransform="matrix(1 0 0 -1 0 142.3614)">
			<stop  offset="0" style="stop-color:#E02E27;stop-opacity:0"/>
			<stop  offset="0.7795" style="stop-color:#C62E28"/>
		</linearGradient>
		<path class="st1" d="M32.5,100.3c-17.2,0-31.2-3.8-31.2-8.7v7.9c0,6.1,14,11.1,31.2,11.1s31.2-5,31.2-11.1v-7.9
			C63.7,96.4,49.7,100.3,32.5,100.3z"/>
		
			<linearGradient id="SVGID_2_" gradientUnits="userSpaceOnUse" x1="1.2686" y1="58.3419" x2="63.6791" y2="58.3419" gradientTransform="matrix(1 0 0 -1 0 142.3614)">
			<stop  offset="0" style="stop-color:#E02E27;stop-opacity:0"/>
			<stop  offset="0.7795" style="stop-color:#C62E28"/>
		</linearGradient>
		<path class="st2" d="M32.5,83.2c-17.2,0-31.2-3.8-31.2-8.7v8.1c0,6.1,14,10.9,31.2,10.9s31.2-5,31.2-11.1v-7.9
			C63.7,79.4,49.7,83.2,32.5,83.2z"/>
		
			<linearGradient id="SVGID_3_" gradientUnits="userSpaceOnUse" x1="1.2686" y1="95.7072" x2="63.6791" y2="95.7072" gradientTransform="matrix(1 0 0 -1 0 142.3614)">
			<stop  offset="0" style="stop-color:#E02E27;stop-opacity:0"/>
			<stop  offset="0.7795" style="stop-color:#C62E28"/>
		</linearGradient>
		<path class="st3" d="M32.5,33.6c-17.2,0-31.2,5-31.2,11.1v3.8c0,6.1,14,11.1,31.2,11.1s31.2-5,31.2-11.1v-3.8
			C63.7,38.7,49.7,33.6,32.5,33.6z"/>
		
			<linearGradient id="SVGID_4_" gradientUnits="userSpaceOnUse" x1="1.2686" y1="75.2009" x2="63.6791" y2="75.2009" gradientTransform="matrix(1 0 0 -1 0 142.3614)">
			<stop  offset="0" style="stop-color:#E02E27;stop-opacity:0"/>
			<stop  offset="0.7795" style="stop-color:#C62E28"/>
		</linearGradient>
		<path class="st4" d="M32.5,66.3c-17.2,0-31.2-3.8-31.2-8.7v7.9c0,6.1,14,11.1,31.2,11.1s31.2-5,31.2-11.1v-7.9
			C63.7,62.4,49.7,66.3,32.5,66.3z"/>
	</g>
	
		<linearGradient id="SVGID_5_" gradientUnits="userSpaceOnUse" x1="85.7569" y1="73.095" x2="99.184" y2="59.3946" gradientTransform="matrix(1 0 0 -1 0 142.3614)">
		<stop  offset="0" style="stop-color:#E02E27;stop-opacity:0"/>
		<stop  offset="0.7795" style="stop-color:#C62E28"/>
	</linearGradient>
	<path class="st5" d="M99.9,65.7c-2.7,0-5.3,0-8,0c0-0.9,0-1.7,0-2.5c0-1.2-0.6-1.8-1.7-1.8c-1.1,0-1.8,0.7-1.8,1.9
		c0,1.5,0.9,2.7,1.9,3.6c1.6,1.6,3.3,3.2,5,4.9c1.8,1.8,3.5,3.6,4.1,6.2c0.3,1.1,0.5,2.2,0.6,3.2c0.2,2.7-0.1,5.3-1,7.8
		c-1.1,3.2-3.5,4.7-6.7,5c-1.5,0.2-3.1,0.1-4.5-0.2c-3.6-0.6-5.7-2.8-6.3-6.3c-0.2-1.4-0.4-2.8-0.5-4.1c-0.1-1.4,0-2.8,0-4.3
		c2.6,0,5.1,0,7.7,0c0,0.2,0,0.4,0,0.6c0,1.5,0,2.9,0,4.4c0,0.5,0.1,1.1,0.2,1.5c0.2,1,0.9,1.4,1.8,1.3c0.9-0.1,1.4-0.5,1.5-1.5
		c0.3-2.6,0-5-1.9-7c-2.1-2.1-4.2-4.2-6.2-6.4c-2.7-2.8-3.6-6.3-2.8-10.1c0.2-1.1,0.5-2.1,0.9-3.2c1.1-2.4,2.9-3.8,5.4-4.3
		c2.2-0.5,4.5-0.3,6.6,0.3c2.3,0.6,3.9,2.2,4.8,4.4C99.7,61.1,99.8,63.3,99.9,65.7z"/>
	
		<linearGradient id="SVGID_6_" gradientUnits="userSpaceOnUse" x1="126.9075" y1="70.0188" x2="139.1959" y2="60.1738" gradientTransform="matrix(1 0 0 -1 0 142.3614)">
		<stop  offset="0" style="stop-color:#E02E27;stop-opacity:0"/>
		<stop  offset="0.7795" style="stop-color:#C62E28"/>
	</linearGradient>
	<path class="st6" d="M133,86.9c2.7,0,5.3,0,7.9,0c0,2.2,0,4.4,0,6.6c-5.3,0-10.5,0-15.7,0c0-13,0-26,0-39.1c0.2,0,0.4,0,0.6,0
		c2.2,0,4.4,0,6.6,0c0.6,0,0.6,0.2,0.6,0.6c0,10.3,0,20.6,0,30.9C133,86.2,133,86.6,133,86.9z"/>
	
		<linearGradient id="SVGID_7_" gradientUnits="userSpaceOnUse" x1="107.2853" y1="72.3915" x2="122.718" y2="58.9123" gradientTransform="matrix(1 0 0 -1 0 142.3614)">
		<stop  offset="0" style="stop-color:#E02E27;stop-opacity:0"/>
		<stop  offset="0.7795" style="stop-color:#C62E28"/>
	</linearGradient>
	<path class="st7" d="M120,97.7c0.9-1.5,1.8-3.2,2.6-4.6c-1.1-0.7-2.2-1.5-3.3-2.1c1.7-2.5,2.1-4.9,2.1-7.5c0-6.4,0-12.8,0-19.3
		c0-1-0.1-1.9-0.2-2.8c-0.6-3.6-2.6-6.1-6.2-7c-2.3-0.6-4.5-0.6-6.8,0.1c-2.7,0.8-4.5,2.6-5.3,5.3c-0.5,1.6-0.6,3.2-0.6,4.9
		c0,5.7,0,11.3,0,17.1c0,1.1,0,2.2,0.1,3.3c0.2,1.8,0.6,3.6,1.6,5.1c1.9,3.1,5.9,4.1,8.9,3.6c0.6-0.2,1.2-0.1,1.8,0.3
		c1.1,0.8,2.3,1.5,3.5,2.3C118.5,96.8,120,97.7,120,97.7z M110,64c0-0.6,0.2-1.2,0.4-1.7c0.2-0.6,0.8-1,1.5-1c0.7,0,1.2,0.4,1.4,1.1
		c0.2,0.7,0.3,1.5,0.3,2.3c0,3.1,0,16-0.1,19.5c0,0.5-0.1,1.1-0.2,1.5c-0.2,0.7-0.6,1.1-1.4,1.1c-0.8,0-1.4-0.2-1.6-1
		c-0.2-0.6-0.4-1.4-0.4-2C109.9,77.2,109.9,70.6,110,64z"/>
</g>
</svg>
