<?xml version="1.0" encoding="utf-8"?>
<!-- Generator: Adobe Illustrator 27.2.0, SVG Export Plug-In . SVG Version: 6.00 Build 0)  -->
<svg version="1.1" id="Layer_1" xmlns="http://www.w3.org/2000/svg" xmlns:xlink="http://www.w3.org/1999/xlink" x="0px" y="0px"
	 viewBox="0 0 354.5 70.8" style="enable-background:new 0 0 354.5 70.8;" xml:space="preserve">
<style type="text/css">
	.st0{fill:url(#SVGID_1_);}
	.st1{fill:url(#SVGID_00000132067592302958841370000008865979664327708589_);}
	.st2{fill:url(#SVGID_00000168106170901438024510000015707444279075976097_);}
	.st3{enable-background:new    ;}
	.st4{fill:#1A1A1A;}
</style>
<g>
	
		<linearGradient id="SVGID_1_" gradientUnits="userSpaceOnUse" x1="-1136.8837" y1="821.2106" x2="-1110.4736" y2="871.2006" gradientTransform="matrix(0.6428 0.766 0.766 -0.6428 273.8078 1428.0604)">
		<stop  offset="0" style="stop-color:#D94A1D"/>
		<stop  offset="0.2" style="stop-color:#D94A20"/>
		<stop  offset="0.4" style="stop-color:#D94C2C"/>
		<stop  offset="0.58" style="stop-color:#DA4F3F"/>
		<stop  offset="0.63" style="stop-color:#DB5045"/>
		<stop  offset="0.75" style="stop-color:#D9433C"/>
		<stop  offset="0.85" style="stop-color:#D83532"/>
		<stop  offset="1" style="stop-color:#D72F2A"/>
	</linearGradient>
	<path class="st0" d="M173.5,42.4c0.1-3.8,2.7-6.9,6.1-7.9l46.9-14.2c-5.1-7.7-13.9-12.9-23.8-13.1c-16.2-0.4-29.7,12.5-30.1,28.8
		c-0.1,3.3,0.4,6.4,1.3,9.4C173.9,45.3,173.4,43.1,173.5,42.4L173.5,42.4z"/>
	
		<linearGradient id="SVGID_00000183961116658763014410000017942805718972821167_" gradientUnits="userSpaceOnUse" x1="-1081.027" y1="813.9783" x2="-1107.937" y2="869.1183" gradientTransform="matrix(0.6428 0.766 0.766 -0.6428 273.8078 1428.0604)">
		<stop  offset="0.14" style="stop-color:#BD142F"/>
		<stop  offset="0.38" style="stop-color:#C71B28"/>
		<stop  offset="0.61" style="stop-color:#D62620"/>
		<stop  offset="1" style="stop-color:#DC5C64"/>
	</linearGradient>
	<path style="fill:url(#SVGID_00000183961116658763014410000017942805718972821167_);" d="M231.4,37.2c0.2-10.8-5.3-20.3-13.8-25.6
		c0.7,0.5,1.3,1.1,1.8,1.8c0.7,1.1,1.1,2.4,1.1,3.8c0,0.9-0.2,1.7-0.5,2.5l-23.1,45.7c1.5,0.3,3,0.4,4.5,0.4
		C217.6,66.3,231,53.5,231.4,37.2L231.4,37.2z"/>
	
		<linearGradient id="SVGID_00000052811084740010661400000001243892389760394633_" gradientUnits="userSpaceOnUse" x1="-1128.8375" y1="819.7399" x2="-1084.6274" y2="819.7399" gradientTransform="matrix(0.6428 0.766 0.766 -0.6428 273.8078 1428.0604)">
		<stop  offset="0.19" style="stop-color:#BD1331"/>
		<stop  offset="0.59" style="stop-color:#CF2024"/>
		<stop  offset="0.89" style="stop-color:#D62620"/>
		<stop  offset="1" style="stop-color:#D62620"/>
	</linearGradient>
	<path style="fill:url(#SVGID_00000052811084740010661400000001243892389760394633_);" d="M210.6,64.6c-0.4,0.1-1.1,0.1-2.1,0
		c-2.8-0.4-4.9-2.5-5.6-5.1l-0.1-0.4c-3-10.9-10.3-20.1-20-25.6l-3.4,1c-3.5,1-6,4.1-6.1,7.9c0,0.7,0.3,2.4,0.4,2.8
		c3.6,11.8,14.4,20.5,27.4,20.7c3.6,0.1,7.1-0.5,10.3-1.6C211.3,64.4,211,64.5,210.6,64.6L210.6,64.6z"/>
</g>
<g class="st3">
	<path class="st4" d="M14.1,40.6c1.1,4,4.1,6,9.1,6c3.2,0,5.6-1.1,7.2-3.2l6.7,3.9c-3.2,4.6-7.8,6.9-14,6.9c-5.3,0-9.6-1.6-12.8-4.8
		C7,46.2,5.4,42.1,5.4,37.2c0-4.8,1.6-8.9,4.8-12.1c3.2-3.2,7.2-4.9,12.2-4.9c4.7,0,8.6,1.6,11.7,4.9c3.1,3.3,4.6,7.3,4.6,12.1
		c0,1.1-0.1,2.2-0.3,3.4H14.1z M14,34.2h16.4c-0.5-2.2-1.4-3.8-2.9-4.9c-1.5-1.1-3.2-1.6-5-1.6c-2.2,0-4.1,0.6-5.5,1.7
		C15.4,30.5,14.4,32.1,14,34.2z"/>
	<path class="st4" d="M78,21.2h8.8L76.6,53.3h-7.9l-5.9-19.5l-5.9,19.5H49L38.8,21.2h8.8L53,40.9l5.8-19.7h7.8L72.6,41L78,21.2z"/>
</g>
<g class="st3">
	<path class="st4" d="M115.8,21.2h8.3v32.1h-8.3v-3.8c-2.5,3.1-6,4.7-10.5,4.7c-4.3,0-8-1.6-11-4.9c-3.1-3.3-4.6-7.3-4.6-12.1
		s1.5-8.8,4.6-12.1c3.1-3.3,6.7-4.9,11-4.9c4.5,0,8,1.6,10.5,4.7V21.2z M100.5,43.7c1.7,1.7,3.8,2.5,6.4,2.5s4.7-0.8,6.4-2.5
		c1.7-1.7,2.5-3.9,2.5-6.5c0-2.7-0.8-4.8-2.5-6.5c-1.7-1.7-3.8-2.5-6.4-2.5s-4.7,0.8-6.4,2.5c-1.7,1.7-2.5,3.9-2.5,6.5
		C98,39.9,98.8,42.1,100.5,43.7z"/>
	<path class="st4" d="M152.5,21.2h8.9l-11.7,32.1c-1.7,4.6-3.9,8-6.7,10.1c-2.8,2.1-6.2,3-10.3,2.8v-7.7c2.2,0,4-0.4,5.3-1.4
		c1.3-1,2.3-2.6,3.1-4.8L128,21.2h9.1l8.4,21.6L152.5,21.2z"/>
</g>
<g class="st3">
	<path class="st4" d="M260.5,54.1c-4.8,0-8.9-1.6-12.1-4.9c-3.2-3.2-4.8-7.2-4.8-12s1.6-8.8,4.8-12c3.2-3.2,7.2-4.9,12.1-4.9
		c3.2,0,6,0.8,8.5,2.3c2.5,1.5,4.4,3.6,5.5,6.1l-3.5,2c-0.9-1.9-2.2-3.5-4.1-4.6c-1.9-1.1-4.1-1.7-6.5-1.7c-3.6,0-6.6,1.2-9,3.7
		c-2.4,2.5-3.7,5.5-3.7,9c0,3.6,1.2,6.6,3.7,9s5.4,3.7,9,3.7c2.4,0,4.5-0.6,6.4-1.7c1.9-1.1,3.4-2.7,4.4-4.6l3.5,2.1
		c-1.3,2.6-3.3,4.6-5.8,6.1C266.5,53.3,263.6,54.1,260.5,54.1z"/>
	<path class="st4" d="M285.2,26.5c2-3.9,5.4-5.8,10.2-5.8v4.1c-2.9,0-5.3,0.9-7.3,2.6c-1.9,1.7-2.9,4.4-2.9,8.1v17.9H281V21.2h4.2
		V26.5z"/>
	<path class="st4" d="M335.4,20.4c3.6,0,6.5,1.2,8.7,3.5c2.2,2.3,3.3,5.4,3.3,9.4v20.1h-4.2V33.2c0-2.8-0.7-4.9-2.2-6.5
		c-1.4-1.5-3.3-2.3-5.7-2.3c-2.7,0-4.8,0.9-6.5,2.7c-1.6,1.8-2.5,4.6-2.5,8.3v17.8h-4.2V33.2c0-2.8-0.7-5-2-6.5
		c-1.3-1.5-3.2-2.2-5.5-2.2c-2.6,0-4.8,0.9-6.6,2.7s-2.7,4.6-2.7,8.3v17.8h-4.2V21.2h4.2v4.7c2.3-3.6,5.6-5.5,9.8-5.5
		c4.6,0,7.9,2,9.8,5.8C327.3,22.3,330.8,20.4,335.4,20.4z"/>
</g>
</svg>
