<?xml version="1.0" encoding="utf-8"?>
<!-- Generator: Adobe Illustrator 24.2.3, SVG Export Plug-In . SVG Version: 6.00 Build 0)  -->
<svg version="1.1" id="Layer_1" xmlns="http://www.w3.org/2000/svg" xmlns:xlink="http://www.w3.org/1999/xlink" x="0px" y="0px"
	 viewBox="0 0 505 225" style="enable-background:new 0 0 505 225;" xml:space="preserve">
<style type="text/css">
	.st0{fill-rule:evenodd;clip-rule:evenodd;fill:url(#XMLID_2_);}
	.st1{fill-rule:evenodd;clip-rule:evenodd;fill:#DE2314;}
	.st2{fill:none;}
	.st3{fill:url(#SVGID_1_);}
	.st4{fill:url(#SVGID_2_);}
	.st5{fill:url(#SVGID_3_);}
	.st6{fill:url(#SVGID_4_);}
</style>
<g>
	<linearGradient id="XMLID_2_" gradientUnits="userSpaceOnUse" x1="96.1774" y1="225.8103" x2="321.7941" y2="35.8317">
		<stop  offset="0.1376" style="stop-color:#E32F25"/>
		<stop  offset="0.4681" style="stop-color:#CF2E27"/>
		<stop  offset="0.6996" style="stop-color:#C62E28"/>
	</linearGradient>
	<path id="XMLID_143_" class="st0" d="M197.1,89.9c-1.6-0.9-3.5-0.9-5.1,0l-42.1,24.3c-1.6,0.9-2.5,2.6-2.5,4.4v48.7
		c0,1.8,1,3.5,2.5,4.4L192,196c1.6,0.9,3.5,0.9,5.1,0l42.1-24.3c1.6-0.9,2.5-2.6,2.5-4.4v-48.7c0-1.8-1-3.5-2.5-4.4L197.1,89.9z"/>
	<path class="st1" d="M126.3,117.9c0-1.8-1-3.5-2.6-4.4L81.3,89c-0.7-0.4-1.5-0.6-2.3-0.7c-0.1,0-0.4,0-0.4,0
		c-0.8,0-1.6,0.3-2.3,0.7l-42.4,24.4c-1.6,0.9-2.6,2.6-2.6,4.4l0.1,65.6c0,0.9,0.5,1.8,1.3,2.2c0.8,0.5,1.8,0.5,2.5,0l25.2-14.4
		c1.6-0.9,2.6-2.6,2.6-4.4v-30.7c0-1.8,1-3.5,2.6-4.4l10.7-6.2c0.8-0.5,1.7-0.7,2.6-0.7c0.9,0,1.8,0.2,2.5,0.7l10.7,6.2
		c1.6,0.9,2.6,2.6,2.6,4.4v30.7c0,1.8,1,3.5,2.6,4.4l25.2,14.4c0.8,0.5,1.8,0.5,2.6,0c0.8-0.4,1.3-1.3,1.3-2.2L126.3,117.9z"/>
	<path class="st1" d="M330,27.6c-0.8-0.4-1.8-0.4-2.5,0c-0.8,0.5-1.3,1.3-1.3,2.2v65c0,0.6-0.3,1.2-0.9,1.6c-0.6,0.3-1.2,0.3-1.8,0
		L313,90.3c-1.6-0.9-3.5-0.9-5.1,0l-42.4,24.5c-1.6,0.9-2.6,2.6-2.6,4.4v48.9c0,1.8,1,3.5,2.6,4.4l42.4,24.5c1.6,0.9,3.5,0.9,5.1,0
		l42.4-24.5c1.6-0.9,2.6-2.6,2.6-4.4V46.2c0-1.9-1-3.6-2.6-4.5L330,27.6z M326.1,152c0,0.5-0.2,0.9-0.6,1.1l-14.5,8.4
		c-0.4,0.2-0.9,0.2-1.3,0l-14.5-8.4c-0.4-0.2-0.6-0.7-0.6-1.1v-16.8c0-0.5,0.2-0.9,0.6-1.1l14.5-8.4c0.4-0.2,0.9-0.2,1.3,0l14.5,8.4
		c0.4,0.2,0.6,0.7,0.6,1.1V152z"/>
	<g>
		<path class="st1" d="M471.1,134.8c1.6-0.9,2.5-2.6,2.5-4.4v-11.9c0-1.8-1-3.5-2.5-4.4L429,89.6c-1.6-0.9-3.5-0.9-5.1,0l-42.4,24.5
			c-1.6,0.9-2.6,2.6-2.6,4.4v48.9c0,1.8,1,3.5,2.6,4.4l42.1,24c1.6,0.9,3.5,0.9,5,0l25.5-14.2c0.8-0.4,1.3-1.3,1.3-2.2
			c0-0.9-0.5-1.8-1.3-2.2l-42.6-24.5c-0.8-0.5-1.3-1.3-1.3-2.2v-15.3c0-0.9,0.5-1.8,1.3-2.2l13.3-7.6c0.8-0.5,1.8-0.5,2.6,0
			l13.3,7.6c0.8,0.5,1.3,1.3,1.3,2.2v12.1c0,0.9,0.5,1.8,1.3,2.2c0.8,0.5,1.8,0.5,2.6,0L471.1,134.8z"/>
		<path class="st1" d="M425.9,132.5c0.3-0.2,0.7-0.2,1,0l8.1,4.7c0.3,0.2,0.5,0.5,0.5,0.9v9.4c0,0.4-0.2,0.7-0.5,0.9l-8.1,4.7
			c-0.3,0.2-0.7,0.2-1,0l-8.1-4.7c-0.3-0.2-0.5-0.5-0.5-0.9V138c0-0.4,0.2-0.7,0.5-0.9L425.9,132.5z"/>
	</g>
	<path class="st2" d="M192,89.9l-42.2,24.3c-1.6,0.9-2.7,2.6-2.7,4.4v48.7c0,1.2,0.5,2.3,1.3,3.2l47.4-81.2
		C194.5,89.1,193.1,89.2,192,89.9z"/>
	<path class="st2" d="M196,196.5c0.4-0.1,0.8-0.3,1.2-0.5l42.2-24.3c1.6-0.9,2.6-2.6,2.6-4.4v-48.7c0-1.3-0.6-2.6-1.5-3.5L196,196.5
		z"/>
	<linearGradient id="SVGID_1_" gradientUnits="userSpaceOnUse" x1="216.3264" y1="100.7684" x2="180.2527" y2="169.9095">
		<stop  offset="0.223" style="stop-color:#E32F25"/>
		<stop  offset="0.5033" style="stop-color:#CF2E27"/>
		<stop  offset="0.6996" style="stop-color:#C62E28"/>
	</linearGradient>
	<path class="st3" d="M239.3,114.2l-42.3-24.3c-0.4-0.2-0.9-0.4-1.3-0.5l-47.4,81.2c0.4,0.5,0.9,0.9,1.4,1.2l42.3,24.3
		c1.2,0.7,2.6,0.9,3.9,0.5l44.5-81.4C240.1,114.7,239.8,114.5,239.3,114.2z"/>
	<linearGradient id="SVGID_2_" gradientUnits="userSpaceOnUse" x1="145.8709" y1="81.1238" x2="243.2879" y2="81.1238">
		<stop  offset="9.191646e-02" style="stop-color:#6ABF4B"/>
		<stop  offset="0.2871" style="stop-color:#64B749"/>
		<stop  offset="0.5984" style="stop-color:#52A044"/>
		<stop  offset="0.8624" style="stop-color:#3F873F"/>
	</linearGradient>
	<polygon class="st4" points="190.6,81 190.1,81.3 190.8,81.3 	"/>
	<linearGradient id="SVGID_3_" gradientUnits="userSpaceOnUse" x1="145.8709" y1="170.7516" x2="243.2879" y2="170.7516">
		<stop  offset="9.191646e-02" style="stop-color:#6ABF4B"/>
		<stop  offset="0.2871" style="stop-color:#64B749"/>
		<stop  offset="0.5984" style="stop-color:#52A044"/>
		<stop  offset="0.8624" style="stop-color:#3F873F"/>
	</linearGradient>
	<polygon class="st5" points="243.3,170.9 243,170.4 243,171.1 	"/>
	<linearGradient id="SVGID_4_" gradientUnits="userSpaceOnUse" x1="178.6068" y1="132.1578" x2="260.5054" y2="184.909">
		<stop  offset="0.1376" style="stop-color:#E32F25"/>
		<stop  offset="0.4681" style="stop-color:#CF2E27"/>
		<stop  offset="0.6996" style="stop-color:#C62E28"/>
	</linearGradient>
	<path class="st6" d="M239.4,171.7c1.2-0.7,2.1-1.9,2.5-3.2l-46.3-79.1c-1.2-0.2-2.5-0.1-3.6,0.6l-42,24.2l45.3,82.6
		c0.6-0.1,1.3-0.3,1.9-0.6L239.4,171.7z"/>
</g>
</svg>
