<?xml version="1.0" encoding="utf-8"?>
<!-- Generator: Adobe Illustrator 23.1.0, SVG Export Plug-In . SVG Version: 6.00 Build 0)  -->
<svg version="1.1" id="Layer_1" xmlns="http://www.w3.org/2000/svg" xmlns:xlink="http://www.w3.org/1999/xlink" x="0px" y="0px"
	 viewBox="0 0 141.7 141.7" style="enable-background:new 0 0 141.7 141.7;" xml:space="preserve">
<style type="text/css">
	.st0{fill:#E32F25;}
	.st1{opacity:0.66;fill:url(#SVGID_1_);enable-background:new    ;}
	.st2{opacity:0.66;fill:url(#SVGID_2_);enable-background:new    ;}
	.st3{opacity:0.66;fill:url(#SVGID_3_);enable-background:new    ;}
</style>
<g>
	<path class="st0" d="M89.9,104.9c0.3-1.1,0.4-2.2,0.7-3.3c1.1-5.4,2.1-10.7,3.2-16c1.1-5.7,2.3-11.4,3.4-17.1
		c1.1-5.7,2.3-11.4,3.4-17.1c0.1-0.3,0.2-0.5,0.6-0.5c8,0,16-0.1,23.9,0c3.7,0,7.1,0.8,10.3,2.9c2.9,1.8,4.7,4.5,5.5,7.9
		c0.5,2.3,0.6,4.6,0.4,7c-0.3,3.9-1.4,7.6-3.4,10.9c-2.9,4.7-6.8,8.1-11.9,10c-2.8,1-5.6,1.4-8.6,1.3c-2.4-0.1-5,0-7.4,0
		c-1.4,0-2.8,0-4.2,0c-0.3,0-0.5,0.1-0.5,0.4c-0.5,2.7-1,5.3-1.5,8c-0.3,1.8-0.7,3.5-1,5.4c0,0.2-0.1,0.3-0.3,0.3c-4,0-8.1,0-12.2,0
		C90,105,89.9,104.9,89.9,104.9z M107.9,80.9c0.3,0,0.3,0,0.5,0c1.8,0,3.8,0,5.6,0c1.3,0,2.5-0.1,3.8-0.3c1.9-0.3,3.8-0.9,5.3-2.1
		c1.8-1.4,3-3.4,3.7-5.5c0.6-1.8,0.9-3.8,1-5.7c0.1-2.4-0.8-4.2-3-5.3c-1.4-0.8-3-1-4.6-1c-2.9,0-5.7,0-8.5,0c-0.2,0-0.3,0-0.4,0
		C110.1,67.6,109,74.2,107.9,80.9z"/>
	<path class="st0" d="M13.2,104.9c-4.2,0-8.4,0-12.7,0c0.3-1.1,0.4-2.3,0.7-3.4c0.9-4.7,1.8-9.4,2.8-14C5,82.2,6,76.8,7.1,71.5
		c1-5,2-10.1,3-15.1c0.3-1.8,0.7-3.4,1-5.2c0.1-0.3,0.3-0.3,0.5-0.3c2.4,0,4.7,0,7.1,0c5.5,0,11.1,0,16.6,0c3,0,6,0.6,8.8,1.9
		c4.2,1.9,6.6,5.2,7.4,9.7c1,6.1-0.1,11.9-3.3,17.2c-2.9,4.9-7.2,8.3-12.7,10.2c-2.4,0.8-5,1.2-7.6,1.1c-1.6-0.1-3.1,0-4.7,0
		c-2.4,0-4.7,0-7,0c-0.3,0-0.4,0.1-0.5,0.4c-0.8,4.4-1.7,8.8-2.5,13.2C13.2,104.6,13.2,104.8,13.2,104.9z M18.5,80.9
		c0.3,0,0.4,0,0.5,0c2.1,0,4.2,0,6.3,0c1.4,0,2.9-0.2,4.3-0.5c2.2-0.5,4-1.4,5.5-3.2c1.1-1.3,1.8-2.8,2.4-4.5c0.6-2.1,1-4.3,0.9-6.5
		c-0.1-1.8-0.9-3-2.4-4c-1.6-1-3.4-1.3-5.2-1.3c-2.9-0.1-5.7,0-8.6,0c-0.2,0-0.3,0-0.4,0C20.7,67.6,19.6,74.2,18.5,80.9z"/>
	<path class="st0" d="M49.4,90.9c0.2-0.7,0.3-1.3,0.4-2c1-5.1,2-10.2,3-15.3c0.9-4.8,1.9-9.6,2.9-14.4c1.1-5.3,2.1-10.7,3.1-16
		c0.4-2,0.8-3.9,1.2-6c0.1-0.3,0.2-0.4,0.5-0.4c3.9,0,8,0,11.9,0c0.1,0,0.3,0,0.4,0c-0.9,4.6-1.8,9.2-2.7,13.9c0.2,0,0.3,0,0.5,0
		c3.7,0,7.4-0.1,11.1,0c2.9,0.1,5.7,0.6,8.3,1.8c2.3,1.1,4,2.6,5,5c0.7,1.7,0.8,3.4,0.5,5.3c-1,6.2-2.1,12.5-3.2,18.7
		c-0.5,2.9-1,6-1.5,8.9c-0.1,0.3-0.2,0.3-0.4,0.3c-4.2,0-8.5,0-12.7,0c-0.1,0-0.2,0-0.3,0c0.1-0.6,0.3-1.3,0.3-1.8
		c0.9-5,1.9-10.1,2.9-15.1c0.5-2.5,1-5,1.4-7.6c0.2-1,0.3-2,0.3-3c-0.1-1.3-0.8-1.9-1.9-2.2c-0.6-0.2-1.3-0.3-1.8-0.3
		c-3.4,0-6.7,0-10.2,0c-0.1,0-0.2,0-0.3,0c-0.2,0.9-0.4,1.8-0.6,2.8c-1,5-2,10-3,15c-0.8,3.9-1.6,7.9-2.4,11.8
		c-0.1,0.3-0.2,0.3-0.4,0.3c-4,0-8,0-12,0C49.6,90.9,49.4,90.9,49.4,90.9z"/>
	
		<linearGradient id="SVGID_1_" gradientUnits="userSpaceOnUse" x1="8.911" y1="74.8052" x2="48.6781" y2="42.2657" gradientTransform="matrix(1 0 0 -1 0 142.3614)">
		<stop  offset="0" style="stop-color:#E02E27;stop-opacity:0"/>
		<stop  offset="0.7795" style="stop-color:#C62E28"/>
	</linearGradient>
	<path class="st1" d="M13.2,104.9c-4.2,0-8.4,0-12.7,0c0.3-1.1,0.4-2.3,0.7-3.4c0.9-4.7,1.8-9.4,2.8-14C5,82.2,6,76.8,7.1,71.5
		c1-5,2-10.1,3-15.1c0.3-1.8,0.7-3.4,1-5.2c0.1-0.3,0.3-0.3,0.5-0.3c2.4,0,4.7,0,7.1,0c5.5,0,11.1,0,16.6,0c3,0,6,0.6,8.8,1.9
		c4.2,1.9,6.6,5.2,7.4,9.7c1,6.1-0.1,11.9-3.3,17.2c-2.9,4.9-7.2,8.3-12.7,10.2c-2.4,0.8-5,1.2-7.6,1.1c-1.6-0.1-3.1,0-4.7,0
		c-2.4,0-4.7,0-7,0c-0.3,0-0.4,0.1-0.5,0.4c-0.8,4.4-1.7,8.8-2.5,13.2C13.2,104.6,13.2,104.8,13.2,104.9z M18.5,80.9
		c0.3,0,0.4,0,0.5,0c2.1,0,4.2,0,6.3,0c1.4,0,2.9-0.2,4.3-0.5c2.2-0.5,4-1.4,5.5-3.2c1.1-1.3,1.8-2.8,2.4-4.5c0.6-2.1,1-4.3,0.9-6.5
		c-0.1-1.8-0.9-3-2.4-4c-1.6-1-3.4-1.3-5.2-1.3c-2.9-0.1-5.7,0-8.6,0c-0.2,0-0.3,0-0.4,0C20.7,67.6,19.6,74.2,18.5,80.9z"/>
	
		<linearGradient id="SVGID_2_" gradientUnits="userSpaceOnUse" x1="95.1451" y1="73.4433" x2="139.3432" y2="47.2652" gradientTransform="matrix(1 0 0 -1 0 142.3614)">
		<stop  offset="0" style="stop-color:#E02E27;stop-opacity:0"/>
		<stop  offset="0.7795" style="stop-color:#C62E28"/>
	</linearGradient>
	<path class="st2" d="M89.9,104.9c0.3-1.1,0.4-2.2,0.7-3.3c1.1-5.4,2.1-10.7,3.2-16c1.1-5.7,2.3-11.4,3.4-17.1
		c1.1-5.7,2.3-11.4,3.4-17.1c0.1-0.3,0.2-0.5,0.6-0.5c8,0,16-0.1,23.9,0c3.7,0,7.1,0.8,10.3,2.9c2.9,1.8,4.7,4.5,5.5,7.9
		c0.5,2.3,0.6,4.6,0.4,7c-0.3,3.9-1.4,7.6-3.4,10.9c-2.9,4.7-6.8,8.1-11.9,10c-2.8,1-5.6,1.4-8.6,1.3c-2.4-0.1-5,0-7.4,0
		c-1.4,0-2.8,0-4.2,0c-0.3,0-0.5,0.1-0.5,0.4c-0.5,2.7-1,5.3-1.5,8c-0.3,1.8-0.7,3.5-1,5.4c0,0.2-0.1,0.3-0.3,0.3c-4,0-8.1,0-12.2,0
		C90,105,89.9,104.9,89.9,104.9z M107.9,80.9c0.3,0,0.3,0,0.5,0c1.8,0,3.8,0,5.6,0c1.3,0,2.5-0.1,3.8-0.3c1.9-0.3,3.8-0.9,5.3-2.1
		c1.8-1.4,3-3.4,3.7-5.5c0.6-1.8,0.9-3.8,1-5.7c0.1-2.4-0.8-4.2-3-5.3c-1.4-0.8-3-1-4.6-1c-2.9,0-5.7,0-8.5,0c-0.2,0-0.3,0-0.4,0
		C110.1,67.6,109,74.2,107.9,80.9z"/>
	
		<linearGradient id="SVGID_3_" gradientUnits="userSpaceOnUse" x1="52.3789" y1="83.6134" x2="92.2586" y2="60.1208" gradientTransform="matrix(1 0 0 -1 0 142.3614)">
		<stop  offset="0" style="stop-color:#E02E27;stop-opacity:0"/>
		<stop  offset="0.7795" style="stop-color:#C62E28"/>
	</linearGradient>
	<path class="st3" d="M49.4,90.9c0.2-0.7,0.3-1.3,0.4-2c1-5.1,2-10.2,3-15.3c0.9-4.8,1.9-9.6,2.9-14.4c1.1-5.3,2.1-10.7,3.1-16
		c0.4-2,0.8-3.9,1.2-6c0.1-0.3,0.2-0.4,0.5-0.4c3.9,0,8,0,11.9,0c0.1,0,0.3,0,0.4,0c-0.9,4.6-1.8,9.2-2.7,13.9c0.2,0,0.3,0,0.5,0
		c3.7,0,7.4-0.1,11.1,0c2.9,0.1,5.7,0.6,8.3,1.8c2.3,1.1,4,2.6,5,5c0.7,1.7,0.8,3.4,0.5,5.3c-1,6.2-2.1,12.5-3.2,18.7
		c-0.5,2.9-1,6-1.5,8.9c-0.1,0.3-0.2,0.3-0.4,0.3c-4.2,0-8.5,0-12.7,0c-0.1,0-0.2,0-0.3,0c0.1-0.6,0.3-1.3,0.3-1.8
		c0.9-5,1.9-10.1,2.9-15.1c0.5-2.5,1-5,1.4-7.6c0.2-1,0.3-2,0.3-3c-0.1-1.3-0.8-1.9-1.9-2.2c-0.6-0.2-1.3-0.3-1.8-0.3
		c-3.4,0-6.7,0-10.2,0c-0.1,0-0.2,0-0.3,0c-0.2,0.9-0.4,1.8-0.6,2.8c-1,5-2,10-3,15c-0.8,3.9-1.6,7.9-2.4,11.8
		c-0.1,0.3-0.2,0.3-0.4,0.3c-4,0-8,0-12,0C49.6,90.9,49.4,90.9,49.4,90.9z"/>
</g>
</svg>
