<?xml version="1.0" encoding="UTF-8"?>
<svg id="Layer_1" xmlns="http://www.w3.org/2000/svg" xmlns:xlink="http://www.w3.org/1999/xlink" viewBox="0 0 32 32">
  <defs>
    <style>
      .cls-1 {
        fill: url(#linear-gradient);
      }

      .cls-2 {
        fill: #e32f25;
      }

      .cls-3 {
        fill: #fff;
      }
    </style>
    <linearGradient id="linear-gradient" x1="0" y1="16" x2="32" y2="16" gradientUnits="userSpaceOnUse">
      <stop offset="0" stop-color="#e02e27" stop-opacity="0"/>
      <stop offset=".01" stop-color="#df2e27" stop-opacity=".02"/>
      <stop offset=".49" stop-color="#d12e27" stop-opacity=".54"/>
      <stop offset=".82" stop-color="#c92e27" stop-opacity=".87"/>
      <stop offset=".97" stop-color="#c62e28"/>
    </linearGradient>
  </defs>
  <path class="cls-2" d="M18.04.13c-3.14-.4-6.33.13-9.16,1.54-2.83,1.41-5.19,3.63-6.76,6.37C.54,10.79-.18,13.94.04,17.1c.22,3.16,1.37,6.18,3.3,8.68,1.93,2.5,4.57,4.38,7.57,5.39,3,1.01,6.23,1.1,9.29.27,3.05-.83,5.79-2.55,7.87-4.93,2.08-2.39,3.4-5.34,3.81-8.47.54-4.21-.61-8.46-3.21-11.82C26.07,2.86,22.25.67,18.04.13Z"/>
  <path class="cls-1" d="M18.04.13c-3.14-.4-6.33.13-9.16,1.54-2.83,1.41-5.19,3.63-6.76,6.37C.54,10.79-.18,13.94.04,17.1c.22,3.16,1.37,6.18,3.3,8.68,1.93,2.5,4.57,4.38,7.57,5.39,3,1.01,6.23,1.1,9.29.27,3.05-.83,5.79-2.55,7.87-4.93,2.08-2.39,3.4-5.34,3.81-8.47.54-4.21-.61-8.46-3.21-11.82C26.07,2.86,22.25.67,18.04.13Z"/>
  <path class="cls-3" d="M11.57,17.01s.02.02.03.03c.01,0,.03,0,.04,0l2.56-.55-1.08-1.09-1.53,1.53s-.02.02-.02.03c0,.01,0,.03,0,.04Z"/>
  <path class="cls-3" d="M23.55,6.02c-.36,0-.71.08-1.03.24s-.6.38-.83.66c-.22.28-.38.6-.46.95-.08.35-.08.71,0,1.06.08.35.23.68.45.96.22.28.5.51.82.67.32.16.67.24,1.03.25.36,0,.71-.07,1.03-.22l-1.62-1.62s-.03-.04-.04-.06-.02-.05-.02-.08,0-.05.02-.08c.01-.02.02-.05.04-.06l2.12-2.12c-.43-.34-.96-.53-1.5-.53Z"/>
  <path class="cls-3" d="M21.37,10.47h-.04s-.08,0-.12.01h-.01s-.09.02-.13.04l-.03.02s-.06.03-.09.05l-.04.02s-.08.06-.11.09l-5.89,5.89.73.73,6.24-5.48s.07-.07.1-.1l.03-.04s.04-.06.06-.1c0-.02.02-.04.03-.06.01-.03.02-.05.03-.08,0-.02.01-.04.02-.06,0-.04.01-.08.02-.12v-.14s0-.04,0-.06c-.03-.15-.1-.29-.21-.4-.11-.11-.25-.18-.4-.21h-.03s-.08-.01-.12-.01Z"/>
  <path class="cls-3" d="M13.4,15.12l1.21,1.2,5.91-5.91c.19-.19.44-.3.71-.33-1.04-.8-2.18-.59-7.83,5.04Z"/>
  <path class="cls-3" d="M22.21,12.08l-.07.07-6.24,5.48,1.06,1.06c2.63-2.49,4.96-4.86,5.25-6.6Z"/>
  <path class="cls-3" d="M6.64,24.9s0,.02.02.03c0,0,.02.01.03.01l2.72.19-1.52-1.52-1.23,1.23s-.01.02-.02.03c0,.01,0,.02,0,.03Z"/>
  <path class="cls-3" d="M8.17,23.32l1.61,1.61s.04.03.07.04c.03,0,.06,0,.08-.02.02-.01.04-.03.06-.06.01-.03.01-.05,0-.08l-.27-1.16c-.02-.07,0-.15.02-.22.03-.07.09-.13.15-.16,2.82-1.41,5.09-2.87,6.76-4.32l-1.12-1.12-2.4.52-4.97,4.97Z"/>
  <path class="cls-3" d="M15.2,17.49l-.6-.6-.83.83s0,.02,0,.03,0,.02,0,.03c0,0,.01.02.02.02,0,0,.02,0,.03,0l1.39-.3Z"/>
  <path class="cls-3" d="M25.35,6.82l-1.99,1.98,1.56,1.56c.11-.08.22-.17.32-.27.43-.43.68-1.01.7-1.61s-.19-1.2-.59-1.65ZM25.23,9.16s-.05.02-.08.02c-.04,0-.07-.01-.1-.03-.03-.02-.05-.05-.07-.08-.01-.03-.02-.07-.02-.1,0-.03.02-.07.04-.09.07-.08.11-.18.12-.29s0-.21-.05-.31c-.01-.02-.02-.05-.03-.07s0-.05,0-.08c0-.03.02-.05.04-.07.02-.02.04-.04.06-.05.02-.01.05-.02.08-.02s.05,0,.08.01c.02.01.05.03.06.05.02.02.03.04.04.07.08.16.11.34.09.52-.02.18-.09.34-.2.48-.02.02-.04.04-.06.05Z"/>
</svg>