<?xml version="1.0" encoding="utf-8"?>
<!-- Generator: Adobe Illustrator 23.1.0, SVG Export Plug-In . SVG Version: 6.00 Build 0)  -->
<svg version="1.1" id="Layer_1" xmlns="http://www.w3.org/2000/svg" xmlns:xlink="http://www.w3.org/1999/xlink" x="0px" y="0px"
	 viewBox="0 0 141.7 141.7" style="enable-background:new 0 0 141.7 141.7;" xml:space="preserve">
<style type="text/css">
	.st0{fill:#E32F25;}
	.st1{fill:url(#SVGID_1_);}
	.st2{fill:url(#SVGID_2_);}
	.st3{fill:url(#SVGID_3_);}
	.st4{fill:url(#SVGID_4_);}
	.st5{fill:url(#SVGID_5_);}
</style>
<g>
	<g>
		<path class="st0" d="M129.3,79.3c0,10,0,20,0,30c0,4-1.4,7.2-4.4,9.9c-0.4,0.4-0.9,0.7-1.4,0.8c-1.1,0.4-2.2,0.7-3.3,1.1
			c-2.1,0.6-4.2,0.7-6.3,0c-3.4-1.1-6.9-2.1-10.3-3.2c-1.4-0.5-2.1-2-1.7-3.4c0.6-1.9,2.4-2.5,3.7-2c3.1,1.1,6.3,1.9,9.3,2.9
			c2.8,0.9,5.2-0.2,7-2c1.1-1.2,1.4-2.7,1.5-4.3c0-2.1,0-4.2,0-6.3c0-17.9,0-35.9,0-53.8c0-1.7-0.4-3.3-1.5-4.6
			c-0.7-0.9-1.7-1.6-2.8-1.9c-12-3.6-24-7.3-36-10.9C65.5,26.3,47.9,21,30.4,15.7c-1.6-0.5-3.2-0.5-4.8,0.1
			c-0.8,0.3-1.5,0.8-2.1,1.5c-1.1,1.4-1.7,3-1.7,4.8c0,13.6,0,27.3,0,40.9c0,0.4,0,0.9-0.1,1.3c-0.3,1.3-1.7,2.2-3.1,2.1
			c-1.5-0.2-2.6-1.3-2.6-2.7c0-0.1,0-0.2,0-0.4c0-13.8,0-27.7,0-41.5c0-3.2,1-6,3.2-8.3c2.6-2.7,5.8-4.2,9.7-3.9
			c1.5,0.1,3,0.5,4.4,0.9c22.3,6.8,44.7,13.5,67,20.3c6.8,2.1,13.6,4.1,20.4,6.2c4.4,1.4,7,4.6,8.2,9c0.3,1.1,0.3,2.2,0.3,3.3
			C129.3,59.4,129.3,69.4,129.3,79.3z"/>
		<path class="st0" d="M78.1,91.8c0-10.9,0-21.8,0-32.7c0-3.4,1.9-6.2,4.8-7.4c4.5-1.8,9.7,1.2,10.3,6c0.1,0.5,0.1,1,0.1,1.5
			c0,21.6,0,43.2,0,64.8c0,0.3,0.2,0.7-0.3,0.9c-0.1,0-0.1,0.3-0.1,0.4c-0.3,3.1-1.9,5.3-4.7,6.6c-0.3,0.2-0.7,0.2-1.1,0.2
			c-1.1,0-2.2,0-3.3,0c-0.5,0-1-0.1-1.4-0.3c-2.9-1.5-4.3-3.9-4.3-7.2c0-8.1,0-16.2,0-24.3C78.1,97.4,78.1,94.6,78.1,91.8z"/>
		<path class="st0" d="M71.6,91.5c0,8.3,0,16.5,0,24.8c0,0.2,0.1,0.5-0.3,0.7c-0.1,0-0.1,0.4-0.1,0.6c-0.3,2.8-1.8,4.9-4.3,6.2
			c-4.3,2.1-10.1-0.1-10.5-6.4c0-0.3,0-0.5,0-0.8c0-16.4,0-32.8,0-49.2c0-3.2,1.4-5.6,4.2-7.1c4.7-2.4,10.9,0.5,11,6.7
			C71.6,75.2,71.6,83.3,71.6,91.5L71.6,91.5z"/>
		<path class="st0" d="M49.5,91.8c0,5.4,0,10.9,0,16.3c0,3.3-2.2,6.2-5.3,7.2c-4.6,1.5-10-1.4-10-7.4c0-6.6,0-13.1,0-19.7
			c0-4.2,0-8.4,0-12.6c0-3.4,2.1-6.3,5.2-7.4c4.6-1.6,10,1.3,10.1,7.1C49.5,80.8,49.5,86.3,49.5,91.8L49.5,91.8z"/>
		<path class="st0" d="M12.4,92c0-3.6,0-7.2,0-10.7c0-0.3,0.1-0.7,0.2-1c1.3-3.2,4.6-5.1,7.9-4.7c3.4,0.4,6.1,3.1,6.7,6.5
			c0.1,0.4,0.1,0.9,0.1,1.3c0,5.8,0,11.6,0,17.4c0,3.8-2.4,6.8-6,7.7c-3.6,0.8-7.3-1.1-8.7-4.5c-0.1-0.3-0.2-0.7-0.2-1
			C12.4,99.3,12.4,95.7,12.4,92z"/>
	</g>
	<g>
		
			<linearGradient id="SVGID_1_" gradientUnits="userSpaceOnUse" x1="100.8602" y1="36.4013" x2="65.5542" y2="100.1245" gradientTransform="matrix(1 0 0 -1 0 142.3614)">
			<stop  offset="0" style="stop-color:#E02E27;stop-opacity:0"/>
			<stop  offset="0.7795" style="stop-color:#C62E28"/>
		</linearGradient>
		<path class="st1" d="M129.3,79.3c0,10,0,20,0,30c0,4-1.4,7.2-4.4,9.9c-0.4,0.4-0.9,0.7-1.4,0.8c-1.1,0.4-2.2,0.7-3.3,1.1
			c-2.1,0.6-4.2,0.7-6.3,0c-3.4-1.1-6.9-2.1-10.3-3.2c-1.4-0.5-2.1-2-1.7-3.4c0.6-1.9,2.4-2.5,3.7-2c3.1,1.1,6.3,1.9,9.3,2.9
			c2.8,0.9,5.2-0.2,7-2c1.1-1.2,1.4-2.7,1.5-4.3c0-2.1,0-4.2,0-6.3c0-17.9,0-35.9,0-53.8c0-1.7-0.4-3.3-1.5-4.6
			c-0.7-0.9-1.7-1.6-2.8-1.9c-12-3.6-24-7.3-36-10.9C65.5,26.3,47.9,21,30.4,15.7c-1.6-0.5-3.2-0.5-4.8,0.1
			c-0.8,0.3-1.5,0.8-2.1,1.5c-1.1,1.4-1.7,3-1.7,4.8c0,13.6,0,27.3,0,40.9c0,0.4,0,0.9-0.1,1.3c-0.3,1.3-1.7,2.2-3.1,2.1
			c-1.5-0.2-2.6-1.3-2.6-2.7c0-0.1,0-0.2,0-0.4c0-13.8,0-27.7,0-41.5c0-3.2,1-6,3.2-8.3c2.6-2.7,5.8-4.2,9.7-3.9
			c1.5,0.1,3,0.5,4.4,0.9c22.3,6.8,44.7,13.5,67,20.3c6.8,2.1,13.6,4.1,20.4,6.2c4.4,1.4,7,4.6,8.2,9c0.3,1.1,0.3,2.2,0.3,3.3
			C129.3,59.4,129.3,69.4,129.3,79.3z"/>
		
			<linearGradient id="SVGID_2_" gradientUnits="userSpaceOnUse" x1="95.2323" y1="33.2832" x2="59.9516" y2="96.9606" gradientTransform="matrix(1 0 0 -1 0 142.3614)">
			<stop  offset="0" style="stop-color:#E02E27;stop-opacity:0"/>
			<stop  offset="0.7795" style="stop-color:#C62E28"/>
		</linearGradient>
		<path class="st2" d="M78.1,91.8c0-10.9,0-21.8,0-32.7c0-3.4,1.9-6.2,4.8-7.4c4.5-1.8,9.7,1.2,10.3,6c0.1,0.5,0.1,1,0.1,1.5
			c0,21.6,0,43.2,0,64.8c0,0.3,0.2,0.7-0.3,0.9c-0.1,0-0.1,0.3-0.1,0.4c-0.3,3.1-1.9,5.3-4.7,6.6c-0.3,0.2-0.7,0.2-1.1,0.2
			c-1.1,0-2.2,0-3.3,0c-0.5,0-1-0.1-1.4-0.3c-2.9-1.5-4.3-3.9-4.3-7.2c0-8.1,0-16.2,0-24.3C78.1,97.4,78.1,94.6,78.1,91.8z"/>
		
			<linearGradient id="SVGID_3_" gradientUnits="userSpaceOnUse" x1="78.5436" y1="24.0367" x2="43.2375" y2="87.7599" gradientTransform="matrix(1 0 0 -1 0 142.3614)">
			<stop  offset="0" style="stop-color:#E02E27;stop-opacity:0"/>
			<stop  offset="0.7795" style="stop-color:#C62E28"/>
		</linearGradient>
		<path class="st3" d="M71.6,91.5c0,8.3,0,16.5,0,24.8c0,0.2,0.1,0.5-0.3,0.7c-0.1,0-0.1,0.4-0.1,0.6c-0.3,2.8-1.8,4.9-4.3,6.2
			c-4.3,2.1-10.1-0.1-10.5-6.4c0-0.3,0-0.5,0-0.8c0-16.4,0-32.8,0-49.2c0-3.2,1.4-5.6,4.2-7.1c4.7-2.4,10.9,0.5,11,6.7
			C71.6,75.2,71.6,83.3,71.6,91.5L71.6,91.5z"/>
		
			<linearGradient id="SVGID_4_" gradientUnits="userSpaceOnUse" x1="61.7555" y1="14.7352" x2="26.4495" y2="78.4584" gradientTransform="matrix(1 0 0 -1 0 142.3614)">
			<stop  offset="0" style="stop-color:#E02E27;stop-opacity:0"/>
			<stop  offset="0.7795" style="stop-color:#C62E28"/>
		</linearGradient>
		<path class="st4" d="M49.5,91.8c0,5.4,0,10.9,0,16.3c0,3.3-2.2,6.2-5.3,7.2c-4.6,1.5-10-1.4-10-7.4c0-6.6,0-13.1,0-19.7
			c0-4.2,0-8.4,0-12.6c0-3.4,2.1-6.3,5.2-7.4c4.6-1.6,10,1.3,10.1,7.1C49.5,80.8,49.5,86.3,49.5,91.8L49.5,91.8z"/>
		
			<linearGradient id="SVGID_5_" gradientUnits="userSpaceOnUse" x1="44.5657" y1="5.2111" x2="9.2596" y2="68.9343" gradientTransform="matrix(1 0 0 -1 0 142.3614)">
			<stop  offset="0" style="stop-color:#E02E27;stop-opacity:0"/>
			<stop  offset="0.7795" style="stop-color:#C62E28"/>
		</linearGradient>
		<path class="st5" d="M12.4,92c0-3.6,0-7.2,0-10.7c0-0.3,0.1-0.7,0.2-1c1.3-3.2,4.6-5.1,7.9-4.7c3.4,0.4,6.1,3.1,6.7,6.5
			c0.1,0.4,0.1,0.9,0.1,1.3c0,5.8,0,11.6,0,17.4c0,3.8-2.4,6.8-6,7.7c-3.6,0.8-7.3-1.1-8.7-4.5c-0.1-0.3-0.2-0.7-0.2-1
			C12.4,99.3,12.4,95.7,12.4,92z"/>
	</g>
</g>
</svg>
