<?xml version="1.0" encoding="utf-8"?>
<!-- Generator: Adobe Illustrator 23.1.0, SVG Export Plug-In . SVG Version: 6.00 Build 0)  -->
<svg version="1.1" id="Layer_1" xmlns="http://www.w3.org/2000/svg" xmlns:xlink="http://www.w3.org/1999/xlink" x="0px" y="0px"
	 viewBox="0 0 141.7 141.7" style="enable-background:new 0 0 141.7 141.7;" xml:space="preserve">
<style type="text/css">
	.st0{fill:#E32F25;}
	.st1{fill:url(#SVGID_1_);}
	.st2{fill:url(#SVGID_2_);}
	.st3{fill:url(#SVGID_3_);}
</style>
<g>
	<path class="st0" d="M3.4,68.2c0.4-0.3,0.8-0.5,1.1-0.8c10.1-10.1,20.2-20.2,30.3-30.3c4.9-4.9,4.5-5,9.4,0.1
		c0.2,0.2,0.3,0.3,0.5,0.5c1.5,1.5,1.5,2.7,0,4.2c-1.9,1.9-3.8,3.8-5.8,5.8C31.5,55.1,24,62.6,16.6,70c-0.3,0.3-0.7,0.6-1.2,1
		c0.5,0.5,0.8,0.8,1.1,1.2c9.3,9.3,18.6,18.6,27.9,27.9c1.8,1.8,1.8,2.8,0,4.6c-1,1-1.9,1.9-2.9,2.9c-1.5,1.5-2.6,1.5-4.2,0
		c-7-7-14-14-20.9-20.9c-4-4-8.1-8.1-12.1-12.1c-0.3-0.3-0.7-0.6-1-0.9C3.4,71.7,3.4,69.9,3.4,68.2z"/>
	<path class="st0" d="M89.6,23.2c-0.3,1.2-0.7,2.7-1.2,4.2C79.5,58.3,70.5,89.1,61.6,120c-0.7,2.3-1.6,2.8-3.9,2.2
		c-1.1-0.3-2.2-0.6-3.3-0.9c-2.2-0.6-2.8-1.6-2.1-3.8c2.1-7.2,4.1-14.4,6.2-21.6C65.7,71.1,72.8,46.3,80,21.6
		c0.6-2.2,1.6-2.7,3.8-2.1c1.3,0.4,2.6,0.7,3.9,1.1C88.9,20.9,89.6,21.7,89.6,23.2z"/>
	<path class="st0" d="M126.4,70.8c-0.6-0.4-1-0.7-1.4-1c-9.3-9.3-18.6-18.5-27.8-27.8c-1.9-1.9-1.9-2.9,0-4.7
		c0.9-0.9,1.9-1.9,2.8-2.8c1.5-1.5,2.7-1.5,4.3,0c7.5,7.5,15,14.9,22.4,22.4c3.5,3.5,7.1,7.1,10.6,10.6c0.7,0.7,0.8,1.4,1,2.3
		c0.3,2.5-0.6,4.3-2.5,6c-10.5,10.3-20.9,20.8-31.3,31.2c-1.9,1.9-2.8,1.9-4.7,0c-0.9-0.9-1.9-1.9-2.8-2.8c-1.6-1.6-1.6-2.7,0-4.3
		c9.3-9.3,18.7-18.7,28-28C125.3,71.7,125.7,71.4,126.4,70.8z"/>
	
		<linearGradient id="SVGID_1_" gradientUnits="userSpaceOnUse" x1="22.0415" y1="88.773" x2="50.9191" y2="57.7095" gradientTransform="matrix(1 0 0 -1 0 142.3614)">
		<stop  offset="0" style="stop-color:#E02E27;stop-opacity:0"/>
		<stop  offset="0.7795" style="stop-color:#C62E28"/>
	</linearGradient>
	<path class="st1" d="M3.4,68.2c0.4-0.3,0.8-0.5,1.1-0.8c10.1-10.1,20.2-20.2,30.3-30.3c4.9-4.9,4.5-5,9.4,0.1
		c0.2,0.2,0.3,0.3,0.5,0.5c1.5,1.5,1.5,2.7,0,4.2c-1.9,1.9-3.8,3.8-5.8,5.8C31.5,55.1,24,62.6,16.6,70c-0.3,0.3-0.7,0.6-1.2,1
		c0.5,0.5,0.8,0.8,1.1,1.2c9.3,9.3,18.6,18.6,27.9,27.9c1.8,1.8,1.8,2.8,0,4.6c-1,1-1.9,1.9-2.9,2.9c-1.5,1.5-2.6,1.5-4.2,0
		c-7-7-14-14-20.9-20.9c-4-4-8.1-8.1-12.1-12.1c-0.3-0.3-0.7-0.6-1-0.9C3.4,71.7,3.4,69.9,3.4,68.2z"/>
	
		<linearGradient id="SVGID_2_" gradientUnits="userSpaceOnUse" x1="61.827" y1="80.8285" x2="87.7955" y2="53.7798" gradientTransform="matrix(1 0 0 -1 0 142.3614)">
		<stop  offset="0" style="stop-color:#E02E27;stop-opacity:0"/>
		<stop  offset="0.7795" style="stop-color:#C62E28"/>
	</linearGradient>
	<path class="st2" d="M89.6,23.2c-0.3,1.2-0.7,2.7-1.2,4.2C79.5,58.3,70.5,89.1,61.6,120c-0.7,2.3-1.6,2.8-3.9,2.2
		c-1.1-0.3-2.2-0.6-3.3-0.9c-2.2-0.6-2.8-1.6-2.1-3.8c2.1-7.2,4.1-14.4,6.2-21.6C65.7,71.1,72.8,46.3,80,21.6
		c0.6-2.2,1.6-2.7,3.8-2.1c1.3,0.4,2.6,0.7,3.9,1.1C88.9,20.9,89.6,21.7,89.6,23.2z"/>
	
		<linearGradient id="SVGID_3_" gradientUnits="userSpaceOnUse" x1="99.5938" y1="75.0411" x2="128.8374" y2="44.1749" gradientTransform="matrix(1 0 0 -1 0 142.3614)">
		<stop  offset="0" style="stop-color:#E02E27;stop-opacity:0"/>
		<stop  offset="0.7795" style="stop-color:#C62E28"/>
	</linearGradient>
	<path class="st3" d="M126.4,70.8c-0.6-0.4-1-0.7-1.4-1c-9.3-9.3-18.6-18.5-27.8-27.8c-1.9-1.9-1.9-2.9,0-4.7
		c0.9-0.9,1.9-1.9,2.8-2.8c1.5-1.5,2.7-1.5,4.3,0c7.5,7.5,15,14.9,22.4,22.4c3.5,3.5,7.1,7.1,10.6,10.6c0.7,0.7,0.8,1.4,1,2.3
		c0.3,2.5-0.6,4.3-2.5,6c-10.5,10.3-20.9,20.8-31.3,31.2c-1.9,1.9-2.8,1.9-4.7,0c-0.9-0.9-1.9-1.9-2.8-2.8c-1.6-1.6-1.6-2.7,0-4.3
		c9.3-9.3,18.7-18.7,28-28C125.3,71.7,125.7,71.4,126.4,70.8z"/>
</g>
</svg>
