<?xml version="1.0" encoding="UTF-8"?>
<svg id="Layer_1" xmlns="http://www.w3.org/2000/svg" viewBox="0 0 32 32">
  <defs>
    <style>
      .cls-1 {
        fill: #c62e28;
      }

      .cls-2 {
        fill: #e32f25;
      }

      .cls-3 {
        fill: #fff;
      }
    </style>
  </defs>
  <path class="cls-3" d="M6.64,24.9s0,.02.02.03c0,0,.02.01.03.01l2.72.19-1.52-1.52-1.23,1.23s-.01.02-.02.03c0,.01,0,.02,0,.03Z"/>
  <g>
    <path class="cls-2" d="M16,.76C7.6.76.76,7.6.76,16s6.84,15.24,15.24,15.24,15.24-6.83,15.24-15.24S24.4.76,16,.76ZM11.75,24.09c-1.69.29-3.09-.19-3.43-1.62-.11-.52-.18-1.06-.21-1.6-.04-.57.02-1.14-.02-1.72-.12-1.57-.33-2.1-1.83-2.17v-1.95c.11-.02.22-.04.33-.06.82-.04,1.18-.3,1.35-1.11.09-.46.14-.92.15-1.38.06-.89.04-1.8.19-2.69.22-1.27,1-1.89,2.31-1.96.37-.02.74,0,1.17,0v1.75c-.18.01-.33.04-.49.04-1.06-.04-1.12.33-1.2,1.21-.05.55.02,1.11-.02,1.67-.04.55-.11,1.1-.22,1.65-.15.78-.64,1.37-1.31,1.86,1.3.85,1.45,2.17,1.54,3.5.04.72.02,1.45.1,2.16.06.55.27.7.84.71.23,0,.47,0,.74,0v1.71ZM13.23,16.08c-.04.61-.56,1.08-1.17,1.04h-.07c-.62-.03-1.1-.56-1.06-1.18.03-.62.56-1.1,1.18-1.06h.02c.62.01,1.12.52,1.11,1.14v.06ZM16.02,17.12c-.69,0-1.14-.43-1.14-1.1,0-.04,0-.07,0-.1.02-.59.52-1.06,1.11-1.04.68,0,1.13.44,1.14,1.11,0,.7-.42,1.14-1.1,1.14ZM19.91,17.12h-.01c-.63,0-1.13-.5-1.13-1.13.02-.63.54-1.13,1.17-1.11.63,0,1.18.53,1.15,1.14-.04.66-.61,1.21-1.18,1.11ZM25.74,16.96c-.09.03-.17.05-.26.06-.95.06-1.39.46-1.48,1.41-.06.61-.06,1.23-.1,1.85-.02.67-.08,1.34-.18,2.01-.25,1.21-1,1.81-2.24,1.88-.4.02-.8,0-1.24,0v-1.74c.23-.01.44-.03.65-.04.74-.02,1-.26,1.04-1,.04-.81.06-1.62.09-2.43.06-1.18.38-2.22,1.46-2.95-.62-.44-1.12-.98-1.25-1.71-.15-.88-.2-1.78-.29-2.68-.04-.45-.04-.9-.09-1.34-.04-.49-.38-.65-.81-.66-.25,0-.5,0-.83,0v-1.7c2.06-.34,3.47.34,3.6,2.3.06.82.05,1.66.1,2.48.02.44.09.89.2,1.32.18.68.54.92,1.25.95.12,0,.23.02.39.04v1.95Z"/>
    <path class="cls-1" d="M16,1.53c7.99,0,14.47,6.48,14.47,14.47s-6.48,14.47-14.47,14.47S1.53,23.99,1.53,16c0-7.99,6.48-14.47,14.47-14.47M16,0C7.18,0,0,7.18,0,16s7.18,16,16,16,16-7.18,16-16S24.82,0,16,0h0Z"/>
  </g>
</svg>