<?xml version="1.0" encoding="utf-8"?>
<!-- Generator: Adobe Illustrator 23.1.0, SVG Export Plug-In . SVG Version: 6.00 Build 0)  -->
<svg version="1.1" id="Layer_1" xmlns="http://www.w3.org/2000/svg" xmlns:xlink="http://www.w3.org/1999/xlink" x="0px" y="0px"
	 viewBox="0 0 141.7 141.7" style="enable-background:new 0 0 141.7 141.7;" xml:space="preserve">
<style type="text/css">
	.st0{fill:#E32F25;}
	.st1{opacity:0.66;fill:url(#SVGID_1_);enable-background:new    ;}
	.st2{opacity:0.66;fill:url(#SVGID_2_);enable-background:new    ;}
	.st3{opacity:0.66;fill:url(#SVGID_3_);enable-background:new    ;}
	.st4{fill:url(#SVGID_4_);}
</style>
<g>
	<path class="st0" d="M41,57c3.5-3.7,8.1-3.6,11.4-0.9c1.6-1.2,3.3-1.8,5.3-1.7c2.3,0.2,4.4,1,5.5,3.1c1.6,3.1,3.3,6.4,4.6,9.7
		c2,4.6,4.1,9.2,5.4,14.1c3.7,13.5-3.2,25.7-16.7,30.4c-11,3.8-20.5,1.1-28.9-6.5c-4.5-4.1-8-9.2-11.6-14c-2.1-2.9-4.2-5.8-6.3-8.7
		c-0.9-1.3-1.6-2.7-2.2-4.1c-1.3-3.6,0.7-6.7,4.5-7.3c2.3-0.3,4.3,0.3,6.3,1.3c0.4,0.2,0.9,0.5,1.6,0.9c-0.8-2-1.4-3.8-2.1-5.5
		c-2.3-6.1-4.7-12.2-7-18.4c-0.7-1.8-0.9-3.6-0.5-5.5c1.3-5.8,7.7-7.9,12-3.8c1.1,1,2,2.4,2.7,3.9c2,4.7,3.7,9.4,5.4,13.8
		c1.8-0.7,3.4-1.5,5.2-2C37.5,55.2,39.3,56,41,57z M47,109.1c1.5-0.2,3.1-0.2,4.5-0.5c1.9-0.4,3.8-0.9,5.5-1.6
		c10.2-4.1,15.3-13.5,12.6-23.8c-2-8.1-5.8-15.6-9.5-23.1c-0.5-1.1-1.5-1.6-2.7-1.5c-1.3,0.1-2.2,0.6-2.7,1.8c-0.4,0.9-1,1.6-2,1.5
		c-0.7-0.1-1.6-0.6-1.9-1.3c-0.9-1.4-2-2.4-3.8-2.3c-1.8,0.2-2.8,1.3-3.4,2.9c-0.6,1.8-2.7,2-3.8,0.5c-1.2-1.6-2.6-2.3-4.5-1.7
		c-1.8,0.5-2.7,1.8-2.8,3.8c-0.1,1.3-1.2,2.3-2.3,2c-1-0.2-1.5-0.9-1.8-1.8c-2.3-6.2-4.7-12.4-7.2-18.5c-0.4-1-1.2-2.1-2.1-2.7
		c-1.8-1.3-3.8-0.5-4.6,1.6c-0.5,1.3-0.2,2.7,0.3,3.9c4.1,10.9,8.4,21.7,12.5,32.6c0.6,1.6,0.4,2.7-0.7,3.2c-1,0.5-2,0.2-3.1-1
		c-1.3-1.5-2.5-3.1-4-4.5c-1.3-1.2-2.8-2.1-4.3-2.9c-0.8-0.4-1.8-0.4-2.7-0.4c-1.1,0.1-1.4,0.7-1,1.7c0.5,1.1,1,2.1,1.7,3.1
		c3.1,4.4,6.3,8.7,9.5,13.1c2.7,3.6,5.5,7.1,8.9,10C36.2,106.6,41,109.1,47,109.1z"/>
	<path class="st0" d="M17.3,28.5c8,0.2,14.6,5.7,16,13.5c0.1,0.3,0.1,0.5,0.1,0.9c0.1,1.5-0.5,2.4-1.8,2.6c-1.3,0.2-2.1-0.7-2.3-2.1
		c-0.9-5.9-5.6-10.4-11.3-10.6c-6.1-0.2-11.3,3.7-12.5,9.6c-0.7,3.4,0,6.6,2,9.4c0.2,0.2,0.3,0.4,0.5,0.5c0.8,1.1,0.7,2.3-0.2,3.1
		s-2.3,0.5-3.1-0.5c-2.6-3.2-3.8-7-3.4-11c0.5-7.7,5.9-13.6,13.5-15C15.4,28.6,16.3,28.6,17.3,28.5z"/>
	<path class="st0" d="M103.4,81.1c-2.4,0-4.9,0-7.3,0c0-0.8,0-1.6,0-2.3c0-1.1-0.5-1.6-1.5-1.6c-1,0-1.6,0.6-1.6,1.7
		c0,1.4,0.8,2.4,1.7,3.4c1.5,1.5,3.1,2.9,4.5,4.4c1.6,1.6,3.1,3.4,3.8,5.6c0.2,0.9,0.5,2,0.5,3c0.2,2.4-0.1,4.8-0.9,7
		c-1,2.9-3.1,4.3-6.1,4.6c-1.4,0.2-2.8,0.1-4.1-0.2c-3.2-0.6-5.2-2.6-5.8-5.7c-0.2-1.3-0.3-2.5-0.4-3.8c-0.1-1.3,0-2.6,0-3.9
		c2.3,0,4.6,0,7,0c0,0.2,0,0.3,0,0.5c0,1.3,0,2.7,0,4c0,0.5,0.1,0.9,0.2,1.4c0.2,0.9,0.8,1.3,1.6,1.2c0.9-0.1,1.3-0.4,1.4-1.3
		c0.3-2.3,0-4.5-1.8-6.3c-1.9-2-3.8-3.8-5.7-5.8c-2.4-2.6-3.2-5.8-2.6-9.2c0.2-0.9,0.4-2,0.8-2.8c0.9-2.2,2.7-3.4,4.9-3.9
		c2-0.4,4-0.3,6,0.3c2.1,0.6,3.5,2,4.3,4C103.2,77,103.3,78.9,103.4,81.1z"/>
	<path class="st0" d="M133.5,100.5c2.4,0,4.8,0,7.2,0c0,2,0,4,0,6c-4.8,0-9.5,0-14.3,0c0-11.8,0-23.7,0-35.5c0.2,0,0.4,0,0.5,0
		c2,0,4,0,5.9,0c0.5,0,0.6,0.2,0.6,0.6c0,9.4,0,18.7,0,28.1C133.5,99.8,133.5,100.1,133.5,100.5z"/>
	<path class="st0" d="M121.6,110.2c0.8-1.4,1.6-2.9,2.4-4.2c-1-0.7-2-1.3-3-2c1.6-2.3,2-4.5,2-6.8c0-5.9,0-11.7,0-17.5
		c0-0.9-0.1-1.7-0.2-2.6c-0.5-3.3-2.3-5.5-5.6-6.3c-2-0.5-4.1-0.5-6.2,0.1c-2.5,0.7-4.1,2.3-4.9,4.8c-0.5,1.4-0.6,2.9-0.6,4.5
		c0,5.2,0,10.3,0,15.6c0,1,0,2,0.1,3.1c0.2,1.6,0.5,3.2,1.4,4.6c1.7,2.7,5.4,3.8,8.1,3.3c0.6-0.1,1.1-0.1,1.6,0.3
		c1,0.7,2.1,1.4,3.1,2.1C120.3,109.4,121.6,110.2,121.6,110.2z M112.5,79.6c0-0.5,0.2-1.1,0.3-1.6c0.2-0.6,0.8-0.9,1.4-0.9
		c0.6,0,1.1,0.4,1.3,1c0.2,0.7,0.2,1.4,0.3,2c0,2.8,0,14.6-0.1,17.7c0,0.5-0.1,0.9-0.2,1.4c-0.2,0.6-0.6,1-1.3,1
		c-0.7,0-1.3-0.2-1.5-0.9c-0.2-0.6-0.3-1.3-0.3-1.8C112.5,91.5,112.5,85.5,112.5,79.6z"/>
	
		<linearGradient id="SVGID_1_" gradientUnits="userSpaceOnUse" x1="92.4789" y1="57.4575" x2="101.362" y2="42.4331" gradientTransform="matrix(1 0 0 -1 0 142.3614)">
		<stop  offset="0" style="stop-color:#E02E27;stop-opacity:0"/>
		<stop  offset="0.7795" style="stop-color:#C62E28"/>
	</linearGradient>
	<path class="st1" d="M103.4,81.1c-2.4,0-4.9,0-7.3,0c0-0.8,0-1.6,0-2.3c0-1.1-0.5-1.6-1.5-1.6c-1,0-1.6,0.6-1.6,1.7
		c0,1.4,0.8,2.4,1.7,3.4c1.5,1.5,3.1,2.9,4.5,4.4c1.6,1.6,3.1,3.4,3.8,5.6c0.2,0.9,0.5,2,0.5,3c0.2,2.4-0.1,4.8-0.9,7
		c-1,2.9-3.1,4.3-6.1,4.6c-1.4,0.2-2.8,0.1-4.1-0.2c-3.2-0.6-5.2-2.6-5.8-5.7c-0.2-1.3-0.3-2.5-0.4-3.8c-0.1-1.3,0-2.6,0-3.9
		c2.3,0,4.6,0,7,0c0,0.2,0,0.3,0,0.5c0,1.3,0,2.7,0,4c0,0.5,0.1,0.9,0.2,1.4c0.2,0.9,0.8,1.3,1.6,1.2c0.9-0.1,1.3-0.4,1.4-1.3
		c0.3-2.3,0-4.5-1.8-6.3c-1.9-2-3.8-3.8-5.7-5.8c-2.4-2.6-3.2-5.8-2.6-9.2c0.2-0.9,0.4-2,0.8-2.8c0.9-2.2,2.7-3.4,4.9-3.9
		c2-0.4,4-0.3,6,0.3c2.1,0.6,3.5,2,4.3,4C103.2,77,103.3,78.9,103.4,81.1z"/>
	
		<linearGradient id="SVGID_2_" gradientUnits="userSpaceOnUse" x1="128.3622" y1="55.3844" x2="137.5949" y2="44.4296" gradientTransform="matrix(1 0 0 -1 0 142.3614)">
		<stop  offset="0" style="stop-color:#E02E27;stop-opacity:0"/>
		<stop  offset="0.7795" style="stop-color:#C62E28"/>
	</linearGradient>
	<path class="st2" d="M133.5,100.5c2.4,0,4.8,0,7.2,0c0,2,0,4,0,6c-4.8,0-9.5,0-14.3,0c0-11.8,0-23.7,0-35.5c0.2,0,0.4,0,0.5,0
		c2,0,4,0,5.9,0c0.5,0,0.6,0.2,0.6,0.6c0,9.4,0,18.7,0,28.1C133.5,99.8,133.5,100.1,133.5,100.5z"/>
	
		<linearGradient id="SVGID_3_" gradientUnits="userSpaceOnUse" x1="111.9268" y1="56.8714" x2="123.1029" y2="41.9489" gradientTransform="matrix(1 0 0 -1 0 142.3614)">
		<stop  offset="0" style="stop-color:#E02E27;stop-opacity:0"/>
		<stop  offset="0.7795" style="stop-color:#C62E28"/>
	</linearGradient>
	<path class="st3" d="M121.6,110.2c0.8-1.4,1.6-2.9,2.4-4.2c-1-0.7-2-1.3-3-2c1.6-2.3,2-4.5,2-6.8c0-5.9,0-11.7,0-17.5
		c0-0.9-0.1-1.7-0.2-2.6c-0.5-3.3-2.3-5.5-5.6-6.3c-2-0.5-4.1-0.5-6.2,0.1c-2.5,0.7-4.1,2.3-4.9,4.8c-0.5,1.4-0.6,2.9-0.6,4.5
		c0,5.2,0,10.3,0,15.6c0,1,0,2,0.1,3.1c0.2,1.6,0.5,3.2,1.4,4.6c1.7,2.7,5.4,3.8,8.1,3.3c0.6-0.1,1.1-0.1,1.6,0.3
		c1,0.7,2.1,1.4,3.1,2.1C120.3,109.4,121.6,110.2,121.6,110.2z M112.5,79.6c0-0.5,0.2-1.1,0.3-1.6c0.2-0.6,0.8-0.9,1.4-0.9
		c0.6,0,1.1,0.4,1.3,1c0.2,0.7,0.2,1.4,0.3,2c0,2.8,0,14.6-0.1,17.7c0,0.5-0.1,0.9-0.2,1.4c-0.2,0.6-0.6,1-1.3,1
		c-0.7,0-1.3-0.2-1.5-0.9c-0.2-0.6-0.3-1.3-0.3-1.8C112.5,91.5,112.5,85.5,112.5,79.6z"/>
	
		<linearGradient id="SVGID_4_" gradientUnits="userSpaceOnUse" x1="7.2328" y1="66.76" x2="74.2587" y2="66.76" gradientTransform="matrix(1 0 0 -1 0 142.3614)">
		<stop  offset="0" style="stop-color:#E02E27;stop-opacity:0"/>
		<stop  offset="0.7795" style="stop-color:#C62E28"/>
	</linearGradient>
	<path class="st4" d="M41,57c3.5-3.7,8.1-3.6,11.4-0.9c1.6-1.2,3.3-1.8,5.3-1.7c2.3,0.2,4.4,1,5.5,3.1c1.6,3.1,3.3,6.4,4.6,9.7
		c2,4.6,4.1,9.2,5.4,14.1c3.7,13.5-3.2,25.7-16.7,30.4c-11,3.8-20.5,1.1-28.9-6.5c-4.5-4.1-8-9.2-11.6-14c-2.1-2.9-4.2-5.8-6.3-8.7
		c-0.9-1.3-1.6-2.7-2.2-4.1c-1.3-3.6,0.7-6.7,4.5-7.3c2.3-0.3,4.3,0.3,6.3,1.3c0.4,0.2,0.9,0.5,1.6,0.9c-0.8-2-1.4-3.8-2.1-5.5
		c-2.3-6.1-4.7-12.2-7-18.4c-0.7-1.8-0.9-3.6-0.5-5.5c1.3-5.8,7.7-7.9,12-3.8c1.1,1,2,2.4,2.7,3.9c2,4.7,3.7,9.4,5.4,13.8
		c1.8-0.7,3.4-1.5,5.2-2C37.5,55.2,39.3,56,41,57z M47,109.1c1.5-0.2,3.1-0.2,4.5-0.5c1.9-0.4,3.8-0.9,5.5-1.6
		c10.2-4.1,15.3-13.5,12.6-23.8c-2-8.1-5.8-15.6-9.5-23.1c-0.5-1.1-1.5-1.6-2.7-1.5c-1.3,0.1-2.2,0.6-2.7,1.8c-0.4,0.9-1,1.6-2,1.5
		c-0.7-0.1-1.6-0.6-1.9-1.3c-0.9-1.4-2-2.4-3.8-2.3c-1.8,0.2-2.8,1.3-3.4,2.9c-0.6,1.8-2.7,2-3.8,0.5c-1.2-1.6-2.6-2.3-4.5-1.7
		c-1.8,0.5-2.7,1.8-2.8,3.8c-0.1,1.3-1.2,2.3-2.3,2c-1-0.2-1.5-0.9-1.8-1.8c-2.3-6.2-4.7-12.4-7.2-18.5c-0.4-1-1.2-2.1-2.1-2.7
		c-1.8-1.3-3.8-0.5-4.6,1.6c-0.5,1.3-0.2,2.7,0.3,3.9c4.1,10.9,8.4,21.7,12.5,32.6c0.6,1.6,0.4,2.7-0.7,3.2c-1,0.5-2,0.2-3.1-1
		c-1.3-1.5-2.5-3.1-4-4.5c-1.3-1.2-2.8-2.1-4.3-2.9c-0.8-0.4-1.8-0.4-2.7-0.4c-1.1,0.1-1.4,0.7-1,1.7c0.5,1.1,1,2.1,1.7,3.1
		c3.1,4.4,6.3,8.7,9.5,13.1c2.7,3.6,5.5,7.1,8.9,10C36.2,106.6,41,109.1,47,109.1z"/>
</g>
</svg>
