<?xml version="1.0" encoding="utf-8"?>
<!-- Generator: Adobe Illustrator 23.1.0, SVG Export Plug-In . SVG Version: 6.00 Build 0)  -->
<svg version="1.1" id="Layer_1" xmlns="http://www.w3.org/2000/svg" xmlns:xlink="http://www.w3.org/1999/xlink" x="0px" y="0px"
	 viewBox="0 0 141.7 141.7" style="enable-background:new 0 0 141.7 141.7;" xml:space="preserve">
<style type="text/css">
	.st0{fill:#E32F25;}
	.st1{opacity:0.66;fill:url(#SVGID_1_);enable-background:new    ;}
</style>
<g>
	<path class="st0" d="M58.7,77c-0.9,0-1.8,0-2.6,0c-6,0-11.9,0-17.9,0c-2.8,0-4.2-1.8-3.4-4.4c5.7-18.2,11.3-36.4,17-54.6
		c0.6-1.8,1.5-2.5,3.4-2.5c10,0,20.1,0,30.1,0c2.6,0,3.9,1.8,3.2,4.3c-3,10.2-6.1,20.4-9.2,30.6c-0.2,0.6-0.3,1.2-0.6,2
		c0.8,0,1.5,0,2.1,0c7.6,0,15.2,0,22.8,0c1.5,0,2.7,0.4,3.3,1.8c0.6,1.3,0.2,2.5-0.7,3.6C88,80,69.9,102.2,51.7,124.4
		c-0.6,0.7-1.5,1.5-2.3,1.8c-2.4,0.6-4.3-1.6-3.5-4.2c1-3.5,2-6.9,3-10.4c3.2-11.1,6.4-22.3,9.6-33.4C58.5,77.9,58.5,77.5,58.7,77z"
		/>
	
		<linearGradient id="SVGID_1_" gradientUnits="userSpaceOnUse" x1="34.5929" y1="71.4455" x2="107.2015" y2="71.4455" gradientTransform="matrix(1 0 0 -1 0 142.3614)">
		<stop  offset="0" style="stop-color:#E02E27;stop-opacity:0"/>
		<stop  offset="0.7795" style="stop-color:#C62E28"/>
	</linearGradient>
	<path class="st1" d="M58.7,77c-0.9,0-1.8,0-2.6,0c-6,0-11.9,0-17.9,0c-2.8,0-4.2-1.8-3.4-4.4c5.7-18.2,11.3-36.4,17-54.6
		c0.6-1.8,1.5-2.5,3.4-2.5c10,0,20.1,0,30.1,0c2.6,0,3.9,1.8,3.2,4.3c-3,10.2-6.1,20.4-9.2,30.6c-0.2,0.6-0.3,1.2-0.6,2
		c0.8,0,1.5,0,2.1,0c7.6,0,15.2,0,22.8,0c1.5,0,2.7,0.4,3.3,1.8c0.6,1.3,0.2,2.5-0.7,3.6C88,80,69.9,102.2,51.7,124.4
		c-0.6,0.7-1.5,1.5-2.3,1.8c-2.4,0.6-4.3-1.6-3.5-4.2c1-3.5,2-6.9,3-10.4c3.2-11.1,6.4-22.3,9.6-33.4C58.5,77.9,58.5,77.5,58.7,77z"
		/>
</g>
</svg>
